<svg xmlns="http://www.w3.org/2000/svg" xmlns:xlink="http://www.w3.org/1999/xlink" viewBox="244.38 197.26 2425.13 331.51" shape-rendering="geometricPrecision" image-rendering="optimizeQuality" fill-rule="evenodd" xmlns:v="https://vecta.io/nano"><path fill="#0e99ae" d="M245.5 197.5l175 .5c.991 14.755 1.324 29.588 1 44.5h-121v61h103v43h-103v69h121v44h-177l1-262z" opacity=".993"/><path fill="#0e9aaf" d="M1734.5 197.5h56l34.5 181 41.5-181h48l41.5 182 34-180c18.26-1.979 36.76-2.646 55.5-2l-57.5 261a805.74 805.74 0 0 1-56.5 1l-41.5-170-41 169a805.74 805.74 0 0 1-56.5 1l-58-262z" opacity=".993"/><path fill="#0d9aaf" d="M448.5 210.5c15.911-.325 31.744.009 47.5 1l.5 248h-48v-249z"/><g fill="#0e9aaf"><use xlink:href="#B" opacity=".987"/><use xlink:href="#B" x="580" opacity=".987"/></g><path fill="#0d9aaf" d="M892.5 241.5h48v43h30v35h-30a1603.76 1603.76 0 0 0 1.5 95c1.193 3.86 3.693 6.36 7.5 7.5a62.12 62.12 0 0 0 23 .5v37a111.9 111.9 0 0 1-43 2.5c-24.289-5.302-36.456-20.469-36.5-45.5l-.5-97h-25v-35h25v-43z" opacity=".987"/><g fill="#0e9aaf"><path d="M606.5 280.5c46.068.598 72.568 23.598 79.5 69 1.11 12.643 1.61 25.31 1.5 38h-111c3.992 23.262 17.825 35.596 41.5 37 16.92-.463 30.753-7.129 41.5-20 8.539 8.371 16.539 17.204 24 26.5-11.68 15.972-27.347 25.972-47 30-33.368 7.071-62.535-.762-87.5-23.5-15.835-18.467-23.002-39.967-21.5-64.5-.802-24.312 6.032-46.146 20.5-65.5 15.871-17.021 35.371-26.021 58.5-27zm-4 40c24.489-1.843 36.822 9.49 37 34a1983.68 1983.68 0 0 1-63-.5c2.121-16.477 10.788-27.643 26-33.5z" opacity=".994"/><path d="M780.5 280.5c28.044-1.842 50.544 8.158 67.5 30 7.485 12.246 10.985 25.579 10.5 40h-45c-.924-18.589-10.591-28.589-29-30-18.164 1.663-28.331 11.663-30.5 30-2.73 18.564-1.73 36.897 3 55 7.543 15.406 19.709 21.24 36.5 17.5 11.981-3.815 18.647-11.982 20-24.5h45c-2.517 33.027-19.85 53.861-52 62.5-19.032 3.83-37.699 2.497-56-4-28.357-14.743-43.524-38.243-45.5-70.5-2.414-21.358.253-42.025 8-62 13.895-27.865 36.395-42.531 67.5-44z" opacity=".991"/></g><path fill="#0d9aaf" d="M1077.5 280.5c6.02.503 12.02 1.169 18 2v47c-11.03-1.499-22.03-1.332-33 .5-8.29 2.624-14.46 7.791-18.5 15.5l-.5 114h-48v-175h46c-.29 5.745.21 11.412 1.5 17 8.22-12.522 19.72-19.522 34.5-21z" opacity=".994"/><path fill="#0e9aaf" d="M1188.5 280.5c45.8.313 73.96 22.646 84.5 67 4.29 24.656 1.95 48.656-7 72-15.8 29.245-40.47 43.911-74 44-39.46-.502-65.8-19.169-79-56-6.29-24.767-5.95-49.433 1-74 13.37-33.769 38.2-51.435 74.5-53zm-5 40c25.68-1.166 39.85 11.167 42.5 37 2.13 17.216.13 33.883-6 50-12.16 17.047-27.66 20.88-46.5 11.5-10.48-9.423-15.98-21.256-16.5-35.5a105.81 105.81 0 0 1 4-41c4.11-10.943 11.61-18.277 22.5-22z" opacity=".993"/><use xlink:href="#C" fill="#0d9aaf" opacity=".991"/><path fill="#0e9aaf" d="M1643.5 280.5c28.04-1.842 50.54 8.158 67.5 30 7.48 12.246 10.98 25.579 10.5 40h-45c-.92-18.589-10.59-28.589-29-30-18.16 1.663-28.33 11.663-30.5 30-2.73 18.564-1.73 36.897 3 55 7.54 15.406 19.71 21.24 36.5 17.5 11.98-3.815 18.65-11.982 20-24.5h45c-2.52 33.027-19.85 53.861-52 62.5-19.03 3.83-37.7 2.497-56-4-28.36-14.743-43.52-38.243-45.5-70.5-2.41-21.358.25-42.025 8-62 13.9-27.865 36.4-42.531 67.5-44z" opacity=".991"/><use xlink:href="#C" x="853" fill="#0d9aaf" opacity=".991"/><path fill="#0e9aaf" d="M2401.5 280.5c18.58-.977 34.41 5.023 47.5 18a67.29 67.29 0 0 0 1.5-14h44l-.5 181c-6.69 35.358-27.86 55.858-63.5 61.5-29.55 5.228-56.22-1.105-80-19-2.85-2.786-4.68-5.953-5.5-9.5a581.84 581.84 0 0 1 21-27c9.16 9.668 20.33 15.834 33.5 18.5 31.7 3.27 47.2-10.896 46.5-42.5-17.35 14.908-37.18 19.408-59.5 13.5-20.93-7.26-35.76-21.094-44.5-41.5-9.88-28.68-10.88-57.68-3-87 9.31-31.498 30.14-48.831 62.5-52zm9 40c14.96-2.078 26.79 2.922 35.5 15 .67 24.333.67 48.667 0 73-8.83 12.647-20.99 17.481-36.5 14.5-9.19-2.52-16.02-8.02-20.5-16.5a63.35 63.35 0 0 1-6-19c-.67-9.667-.67-19.333 0-29 1.2-12.233 6.04-22.733 14.5-31.5 4.16-2.745 8.49-4.912 13-6.5z" opacity=".992"/><g fill="#0d9aaf"><path d="M2590.5 280.5c21.99-1.338 41.99 4.162 60 16.5 12.96 10.753 19.29 24.587 19 41.5h-48c-1.73-15.39-10.4-23.057-26-23-9.93-.214-17.43 3.786-22.5 12-2.53 9.777.97 16.61 10.5 20.5 12.83 3.967 25.83 7.3 39 10 15.72 3.764 28.89 11.597 39.5 23.5 16.24 38.029 4.74 63.863-34.5 77.5-27.73 7.54-54.4 4.873-80-8-17.48-11.453-26.81-27.62-28-48.5h46c2.48 17.772 12.82 26.439 31 26 8.27.419 15.6-1.914 22-7 5.3-6.829 5.3-13.662 0-20.5a87.45 87.45 0 0 0-11-6c-10.21-3.136-20.54-5.802-31-8-15.32-3.91-28.82-11.077-40.5-21.5-10.78-14.163-13.45-29.829-8-47 9.26-19.247 24.43-31.08 45.5-35.5l17-2.5z" opacity=".992"/><path d="M1490.5 284.5h48v175h-48v-175zm580 0h48v175h-48v-175z"/></g><defs ><path id="B" d="M1512.5 214.5c17.18.219 26.84 8.719 29 25.5-3.45 19.583-15.12 27.583-35 24-9.72-2.055-15.89-7.888-18.5-17.5-2.48-18.998 5.68-29.665 24.5-32z"/><path id="C" d="M1393.5 280.5c36.31-.859 56.14 16.807 59.5 53l.5 126h-48l-.5-119c-2.78-14.092-11.44-20.759-26-20-12.77-.218-22.44 5.116-29 16l-.5 123h-48v-175h46c-.29 5.745.21 11.412 1.5 17 12.17-12.837 27-19.837 44.5-21z"/></defs></svg>