<svg xmlns="http://www.w3.org/2000/svg" xmlns:v="https://vecta.io/nano" viewBox="1 1 602 602"><path fill="#feffff" d="M356 603H1V1h602v602H356m51.598-22.895c53.807-20.874 98.356-54.207 132.515-100.671 49.841-67.795 67.941-143.682 54.954-226.792-8.22-52.607-29.169-100.014-63.723-140.326-74.902-87.382-170.08-122.97-283.746-104.134C170.507 20.959 108.424 60.8 61.842 123.304 12.826 189.072-5.325 263.377 5.915 344.642c7.588 54.862 29.273 103.855 64.753 146.209 55.445 66.186 126.497 102.599 212.907 108.333 42.468 2.818 83.526-3.816 124.023-19.078z"/><path fill="#0e9bb0" d="M407.235 580.248c-40.134 15.119-81.192 21.753-123.66 18.935-86.41-5.734-157.462-42.147-212.907-108.333-35.48-42.353-57.165-91.346-64.753-146.209-11.24-81.265 6.911-155.57 55.926-221.338C108.424 60.8 170.507 20.959 247.599 8.183c113.665-18.836 208.843 16.752 283.746 104.134 34.554 40.312 55.503 87.719 63.723 140.326 12.987 83.11-5.113 158.997-54.954 226.792-34.159 46.463-78.708 79.797-132.878 100.814M143.205 313.311c.277-.153.554-.305 1.742-.682h84.699v-35.984h-87.287v-52.816h102.247v-36.491H96.712v220.957h147.96v-36.493H142.467c-.157-1.007-.34-1.634-.34-2.261l.019-53.981c.002-.864.552-1.727 1.059-2.249m224.46-119.235l-34.391 147.61-.953-.243-29.448-154.296h-45.542l49.126 221.453 40.332.088c4.087.072 6.025-.832 7.068-5.234l28.172-116.64 6.094-24.423.806.127 35.534 145.773h46.06l49.033-221.113h-45.478l-29.402 155.036-.821.04-35.828-155.035h-38.806l-1.556 6.857z"/><path fill="#fefeff" d="M367.775 193.67l1.445-6.45h38.806l35.828 155.035.821-.04 29.402-155.036h45.478l-49.033 221.113h-46.06l-35.534-145.773-.806-.127-6.094 24.423-28.172 116.64c-1.043 4.402-2.981 5.306-7.068 5.234l-40.332-.088-49.126-221.453h45.542l29.448 154.296.953.243 34.501-148.016z"/><path fill="#fcfefe" d="M142.992 312.97c-.295.864-.844 1.727-.847 2.591l-.019 53.981c.001.627.183 1.254.34 2.261h102.205v36.493H96.712V187.338h147.893v36.491H142.358v52.816h87.287v35.984l-85.425.049c-.894.13-1.061.211-1.228.291z"/><path fill="#0094aa" d="M143.099 313.141c.061-.252.228-.332.666-.35-.006.216-.283.368-.666.35z"/></svg>